# xmcd
# 
# Track frame offsets:
#     182
#     16695
#     27870
#     42112
#     56257
#     75727
#     91690
#     116687
#     136145
#     154062
#     166912
# 
# Disc length: 2561
# 
# Revision: 8
# Processed by: cddbd v1.5.2PL0 Copyright (c) Steve Scherf et al.
# Submitted via: fre:ac v1.0.31
# 
DISCID=7109ff0b
DTITLE=Emmylou Harris - Cowgirl's Prayer
DYEAR=1993
DGENRE=Country
TTITLE0=A Ways To Go
TTITLE1=The Light
TTITLE2=High Powered Love
TTITLE3=You Don't Know Me
TTITLE4=Prayer In Open D
TTITLE5=Crescent City
TTITLE6=Lovin' You Again
TTITLE7=Jerusalem Tomorrow
TTITLE8=Thanks To You
TTITLE9=I Hear A Call
TTITLE10=Ballad Of A Runaway Horse
EXTD=UPC 075596154123\n YEAR: 1993
EXTT0=
EXTT1=
EXTT2=
EXTT3=
EXTT4=
EXTT5=
EXTT6=
EXTT7=
EXTT8=
EXTT9=
EXTT10=
PLAYORDER=
